<svg xmlns="http://www.w3.org/2000/svg" width="300" height="300">
<g
transform="translate(0,-752.36218)"
id="layer1">
<g
transform="matrix(0.5,-0.8660254,0.8660254,0.5,-675.15386,511.38438)"
id="g5643">
<g
transform="translate(47.44802,-8.7313481)"
id="g5658">
<g
transform="matrix(0.99989547,-4.735411e-8,-4.7354187e-8,0.99989541,-123.45713,16.551249)"
id="g5790">
<path
d="m 122.46875,657.3125 c -22.09032,12.72427 -41.24338,31.24147 -54.90625,54.90625 l 17.75,10.1875 c 11.786842,-20.40014 28.30234,-36.39184 47.34375,-47.375 l -10.1875,-17.71875 z"
transform="matrix(0.5,0.86602541,-0.86602541,0.5,733.00078,337.73955)"
id="path3025"
style="fill:#ffcc00;fill-opacity:1;stroke:none" />
<path
d="M 67.5625,712.21875 C 53.89963,735.88353 47.443136,761.69459 47.46875,787.1875 l 20.4375,-0.0312 C 67.89165,765.16367 73.470479,742.88678 85.25,722.4688 l -17.6875,-10.25 z"
transform="matrix(0.5,0.86602541,-0.86602541,0.5,733.00078,337.73955)"
id="path3023"
style="fill:#feac00;fill-opacity:1;stroke:none" />
<path
d="m 47.46875,787.1875 c 0.02644,26.29854 6.962435,52.24396 20.09375,75.03125 l 17.6875,-10.25 c -11.327587,-19.66849 -17.317706,-42.05289 -17.34375,-64.75 l -20.4375,-0.0312 z"
transform="matrix(0.5,0.86602541,-0.86602541,0.5,733.00078,337.73955)"
id="path3021"
style="fill:#ff8100;fill-opacity:1;stroke:none" />
<path
d="M 85.28125,852.03125 67.5625,862.21875 C 80.289208,884.30392 98.837103,903.46322 122.5,917.125 l 10.1875,-17.71875 c -20.42265,-11.79102 -36.416188,-28.31641 -47.40625,-47.375 z"
transform="matrix(0.5,0.86602541,-0.86602541,0.5,733.00078,337.73955)"
id="path3019"
style="fill:#ff5800;fill-opacity:1;stroke:none" />
<path
d="M 132.75,899.4375 122.5,917.125 c 23.66379,13.66229 49.50937,20.11517 75,20.09375 l -0.0312,-20.4375 c -0.46868,4.2e-4 -0.93731,-0.0266 -1.40625,-0.0312 -0.68863,-0.007 -1.37344,-0.0133 -2.0625,-0.0312 -0.64646,-0.0168 -1.29076,-0.036 -1.9375,-0.0625 -0.65564,-0.0269 -1.31296,-0.0568 -1.96875,-0.0937 -0.79283,-0.0446 -1.5821,-0.0969 -2.375,-0.15625 -0.87793,-0.0656 -1.74727,-0.13505 -2.625,-0.21875 -0.64803,-0.0618 -1.28971,-0.14704 -1.9375,-0.21875 -1.31916,-0.14597 -2.65125,-0.31277 -3.96875,-0.5 -0.27954,-0.0397 -0.56431,-0.0522 -0.84375,-0.0937 -0.51109,-0.0762 -1.02054,-0.16755 -1.53125,-0.25 -1.21944,-0.19686 -2.43952,-0.42362 -3.65625,-0.65625 -0.23925,-0.0457 -0.47962,-0.0779 -0.71875,-0.125 -1.27913,-0.25208 -2.56862,-0.52057 -3.84375,-0.8125 -0.91271,-0.20882 -1.80847,-0.42693 -2.71875,-0.65625 -0.26194,-0.066 -0.51953,-0.15103 -0.78125,-0.21875 -0.34248,-0.0886 -0.68916,-0.15848 -1.03125,-0.25 -1.20854,-0.32336 -2.42179,-0.67131 -3.625,-1.03125 -0.24983,-0.0747 -0.50042,-0.14248 -0.75,-0.21875 -0.75478,-0.23078 -1.49762,-0.50472 -2.25,-0.75 -0.27077,-0.0883 -0.54206,-0.15987 -0.8125,-0.25 -0.0718,-0.0239 -0.14699,-0.0384 -0.21875,-0.0625 -0.31135,-0.10438 -0.6266,-0.20562 -0.9375,-0.3125 -0.87811,-0.30194 -1.75068,-0.61556 -2.625,-0.9375 -0.71872,-0.26458 -1.44028,-0.53436 -2.15625,-0.8125 -0.0955,-0.0371 -0.18579,-0.0876 -0.28125,-0.125 -0.92505,-0.36189 -1.86115,-0.7091 -2.78125,-1.09375 -0.33494,-0.14007 -0.66575,-0.29441 -1,-0.4375 -0.70987,-0.30379 -1.41835,-0.62004 -2.125,-0.9375 -0.03,-0.0135 -0.0638,-0.0178 -0.0937,-0.0312 -0.46404,-0.20889 -0.91241,-0.44144 -1.375,-0.65625 -0.69905,-0.32476 -1.39814,-0.63044 -2.09375,-0.96875 -0.34725,-0.16883 -0.68489,-0.35904 -1.03125,-0.53125 -0.83587,-0.41572 -1.66949,-0.84576 -2.5,-1.28125 -0.51885,-0.27194 -1.04584,-0.53282 -1.5625,-0.8125 -1.03058,-0.55814 -2.07227,-1.12971 -3.09375,-1.71875 z"
transform="matrix(0.5,0.86602541,-0.86602541,0.5,733.00078,337.73955)"
id="path3017"
style="fill:#ff3ba7;fill-opacity:1;stroke:none" />
<path
d="m 262.25,899.4375 c -19.65945,11.32238 -42.03236,17.31223 -64.71875,17.34375 l -0.0312,20.4375 c 26.30434,-0.0221 52.20918,-6.96269 75,-20.09375 l -10.25,-17.6875 z"
transform="matrix(0.5,0.86602541,-0.86602541,0.5,733.00078,337.73955)"
id="path3015"
style="fill:#cc42a2;fill-opacity:1;stroke:none" />
<path
d="m 309.625,852.03125 c -11.78868,20.39364 -28.2728,36.39584 -47.3125,47.375 L 272.5,917.125 c 22.08475,-12.72391 41.21497,-31.24638 54.875,-54.90625 l -17.75,-10.1875 z"
transform="matrix(0.5,0.86602541,-0.86602541,0.5,733.00078,337.73955)"
id="path3013"
style="fill:#9f49ac;fill-opacity:1;stroke:none" />
<path
d="m 347.5,787.21875 -20.46875,0.0312 c 0.0146,21.99748 -5.59015,44.26584 -17.375,64.6875 L 327.375,862.2187 c 13.66003,-23.65987 20.14815,-49.5121 20.125,-75 z"
transform="matrix(0.5,0.86602541,-0.86602541,0.5,733.00078,337.73955)"
id="path3011"
style="fill:#476eaf;fill-opacity:1;stroke:none" />
<path
d="m 327.40625,712.21875 -17.6875,10.25 c 11.3144,19.65994 17.28647,42.03526 17.3125,64.71875 L 347.5,787.2187 c -0.0236,-26.30296 -6.96072,-52.20873 -20.09375,-75 z"
transform="matrix(0.5,0.86602541,-0.86602541,0.5,733.00078,337.73955)"
id="path3009"
style="fill:#179067;fill-opacity:1;stroke:none" />
<path
d="m 272.5,657.3125 -10.1875,17.71875 c 20.40173,11.79328 36.36415,28.3258 47.34375,47.375 l 17.75,-10.1875 C 314.67949,690.1325 296.16379,670.97479 272.5,657.3125 z"
transform="matrix(0.5,0.86602541,-0.86602541,0.5,733.00078,337.73955)"
id="path3007"
style="fill:#50b517;fill-opacity:1;stroke:none" />
<path
d="m 197.5,637.1875 0.0312,20.4375 c 21.9958,-0.009 44.30035,5.58643 64.71875,17.375 l 10.25,-17.6875 c -23.6629,-13.66178 -49.51032,-20.14594 -75,-20.125 z"
transform="matrix(0.5,0.86602541,-0.86602541,0.5,733.00078,337.73955)"
id="path3005"
style="fill:#9ed110;fill-opacity:1;stroke:none" />
<path
d="m 197.5,637.1875 c -26.30003,0.0216 -52.24282,6.99862 -75.03125,20.125 l 10.25,17.65625 c 19.67753,-11.33279 42.04217,-17.32318 64.75,-17.34375 L 197.5,637.1875 z"
transform="matrix(0.5,0.86602541,-0.86602541,0.5,733.00078,337.73955)"
id="path2985"
style="fill:#ede604;fill-opacity:1;stroke:none" />
</g>
</g>
</g>
</g>
</svg>